<?xml version="1.0" encoding="UTF-8" standalone="no"?>
<svg
   version="1.1"
   id="Layer_1"
   x="0px"
   y="0px"
   width="3400"
   viewBox="0 0 3400 1000"
   enable-background="new 0 0 1024 1024"
   xml:space="preserve"
   sodipodi:docname="logo_with_text_whitebg.svg"
   inkscape:version="1.3 (0e150ed, 2023-07-21)"
   height="1000"
   xmlns:inkscape="http://www.inkscape.org/namespaces/inkscape"
   xmlns:sodipodi="http://sodipodi.sourceforge.net/DTD/sodipodi-0.dtd"
   xmlns="http://www.w3.org/2000/svg"
   xmlns:svg="http://www.w3.org/2000/svg"><defs
   id="defs3"><rect
     x="1136.8136"
     y="190.91525"
     width="3974.5085"
     height="893.83051"
     id="rect6" /><rect
     x="1240.9492"
     y="156.20338"
     width="1167.1864"
     height="516.33899"
     id="rect5" /><rect
     x="1002.3051"
     y="186.57626"
     width="1336.4069"
     height="308.06781"
     id="rect4" /><rect
     x="1002.3051"
     y="86.779663"
     width="2286.644"
     height="512"
     id="rect3" /></defs><sodipodi:namedview
   id="namedview3"
   pagecolor="#ffffff"
   bordercolor="#000000"
   borderopacity="0.25"
   inkscape:showpageshadow="2"
   inkscape:pageopacity="0.0"
   inkscape:pagecheckerboard="0"
   inkscape:deskcolor="#d1d1d1"
   inkscape:zoom="0.3"
   inkscape:cx="1735"
   inkscape:cy="625"
   inkscape:window-width="1600"
   inkscape:window-height="938"
   inkscape:window-x="36"
   inkscape:window-y="43"
   inkscape:window-maximized="0"
   inkscape:current-layer="Layer_1"
   showgrid="true"><inkscape:grid
     id="grid12"
     units="px"
     originx="0"
     originy="0"
     spacingx="1"
     spacingy="1"
     empcolor="#0099e5"
     empopacity="0.30196078"
     color="#0099e5"
     opacity="0.14901961"
     empspacing="5"
     dotted="false"
     gridanglex="30"
     gridanglez="30"
     visible="true" /></sodipodi:namedview>&#10;<rect
   style="fill:#ffffff;fill-opacity:1;stroke:#ffffff"
   id="rect1"
   width="3400"
   height="1000"
   x="6.666667"
   y="3.3333335" /><path
   fill="#000000"
   opacity="1"
   stroke="none"
   d="m 356.91144,825.1947 c -28.81616,-13.38592 -54.7525,-30.40716 -77.59491,-52.02166 -3.29889,-3.12153 -6.63376,-6.25684 -8.80335,-10.63959 14.55677,5.19482 28.50583,11.79693 44.10074,13.87921 -24.99719,-20.61395 -47.27344,-43.14984 -58.55697,-74.45154 7.36718,7.42059 14.85342,14.55701 25.43548,18.0119 -21.74609,-27.40094 -34.4584,-58.63238 -39.6575,-92.75049 -5.149,-33.78924 -5.67642,-67.40429 9.02344,-100.91443 2.29266,4.16987 1.21295,7.09662 1.11038,9.89033 -0.75934,20.67987 1.26034,40.83325 10.15445,59.91357 9.949,21.34351 25.62894,37.44171 44.8154,50.61212 23.01639,15.79944 48.43204,26.46814 74.5906,35.62451 1.36634,0.47821 2.84849,1.0025 5.11081,0.008 0,-6.61927 0.42536,-13.59326 -0.0808,-20.49903 -1.44668,-19.73926 -3.07479,-39.5122 -8.26458,-58.69653 -5.76477,-21.30963 -16.0575,-40.48767 -29.02893,-58.25946 -14.35733,-19.67072 -28.35868,-39.55267 -37.87198,-62.16962 -7.61179,-18.09628 -11.87454,-36.99731 -13.75934,-56.50378 -4.98962,-51.64008 5.9729,-99.96503 30.39032,-145.40445 14.07199,-26.1872 32.68103,-48.6848 56.9967,-65.99944 5.74598,-4.09158 8.68109,-8.54463 9.63202,-15.54863 3.26636,-24.05832 13.47754,-45.47346 26.44422,-65.70762 5.94781,-9.2814 12.56573,-18.04982 20.39203,-25.83503 7.46698,-7.42778 13.91177,-6.83182 20.84149,0.88727 15.71722,17.50762 26.86978,37.56166 34.45211,59.72359 0.3042,0.88913 0.38639,2.0157 1.58439,2.52818 1.90869,9e-5 3.24258,-1.42334 4.68042,-2.44131 22.73636,-16.0967 48.57473,-25.44743 74.60336,-34.38399 1.08643,-0.37302 2.28003,-0.46266 3.43341,-0.60699 5.9668,-0.74677 8.6037,2.24218 6.74017,7.96635 -1.55297,4.76997 -4.22949,9.04169 -6.77026,13.344 -7.80872,13.22271 -14.62024,26.91271 -19.92059,41.35235 -4.24268,11.55824 -3.78089,22.204 3.84277,32.56825 7.448,10.12548 9.10852,21.9394 7.22516,34.24491 -1.7815,11.64019 2.5824,21.17413 9.94653,29.72586 8.82331,10.24612 18.84827,19.31408 28.3385,28.90665 4.45227,4.50024 8.8404,9.06469 13.21454,13.6412 3.3905,3.54742 3.28223,6.93198 -0.35724,10.37488 -4.388,4.15091 -8.86267,8.10379 -14.86084,9.73446 -1.1889,0.32322 -2.16882,0.86225 -2.93579,1.76612 -9.64105,11.3623 -22.14923,12.35058 -35.59698,9.7955 -13.72724,-2.60822 -27.01068,-7.20484 -40.91327,-9.07239 -5.87647,-0.7894 -11.62879,-0.0746 -17.3891,0.77542 -1.42267,0.20993 -2.97327,0.65051 -3.87189,2.63928 1.67407,3.69498 5.23059,5.90201 8.32013,8.54114 24.87439,21.24872 54.17078,35.00479 83.22614,49.18363 37.85437,18.47271 74.2575,39.31775 105.79553,67.591 35.93811,32.21787 63.38684,70.46732 80.30115,115.93662 2.19512,5.90087 4.38555,11.80346 6.8825,18.52435 4.70118,-13.31073 7.66504,-26.1911 10.30121,-39.15009 3.31604,-16.30182 5.14484,-32.74511 6.30493,-49.38055 2.11902,-30.38648 -0.88989,-60.19354 -8.32336,-89.50937 C 782.3548,371.04504 743.82886,312.00586 685.8645,265.86865 659.48688,244.87317 630.10895,228.89656 598.34515,217.43552 587.90564,213.6687 584.0307,207.60661 586.79437,199.2679 c 2.06159,-6.22042 7.6969,-9.4905 14.16895,-7.81655 9.54022,2.46753 18.55822,6.44645 27.59179,10.28777 80.62952,34.28581 138.18299,92.34721 175.57856,170.99937 14.31024,30.09803 23.703,61.78119 28.91437,94.67283 3.92468,24.77078 4.17785,49.67425 2.41931,74.67498 -2.66169,37.8418 -10.66767,74.46979 -25.71485,109.26557 -28.73877,66.4566 -73.91095,119.16314 -135.46197,157.33862 -34.58112,21.44806 -72.44281,34.76166 -112.33606,42.87543 -29.56678,6.01343 -59.39276,6.11816 -89.07328,4.25806 -40.3349,-2.52772 -79.05285,-12.85309 -115.96975,-30.62928 M 617.19006,602.68756 c 25.12073,-23.93439 35.5575,-52.50897 26.77289,-88.328 5.09827,4.63153 9.22516,8.19232 13.1286,11.98315 3.43396,3.33478 5.43616,7.52216 6.27533,12.25464 3.11438,17.56274 -1.47027,33.61798 -9.60486,48.96613 -3.93548,7.42547 -9.39019,13.81659 -14.31152,20.55798 21.79309,-15.20532 31.31897,-37.31683 34.39697,-63.64648 17.21595,14.46167 18.03455,31.16583 11.12476,49.76391 6.77533,-4.08349 8.79718,-11.28363 12.19122,-17.71478 3.16168,1.73889 4.80023,4.58874 5.34613,7.25555 1.96247,9.58838 8.20209,10.86475 16.49793,10.02509 4.65637,-0.47132 9.44696,0.38336 14.92602,0.68139 -2.1781,-10.02349 -6.43152,-17.79345 -14.06701,-23.53912 -2.3689,-1.78253 -5.24262,-2.74231 -7.96235,-1.19116 -3.13055,1.78534 -0.74884,4.40747 -0.41973,6.69257 0.0405,0.28082 -0.17737,0.59893 -0.55872,1.76751 -4.1051,-4.2691 -9.22436,-6.84674 -12.42694,-12.26782 3.81848,0.66553 5.56494,-1.67236 7.60571,-3.65839 2.00141,-1.94769 4.23822,-3.6535 6.75965,-5.79486 -4.09485,-7.72931 -9.56,-13.78637 -18.26264,-16.43487 -2.09601,-0.63782 -4.27319,-1.58685 -6.19946,-0.12659 -2.35236,1.7832 0.51752,3.56787 0.35931,5.40241 -0.0197,0.229 -0.38946,0.42785 -0.81695,0.86627 -3.94824,-3.14679 -7.90351,-6.2992 -12.29914,-9.80255 3.81562,-2.1319 5.42182,-5.58136 8.06769,-8.02765 2.40918,-2.22748 1.68927,-4.00336 -0.14142,-5.89777 -5.57757,-5.77154 -12.70257,-8.34784 -20.38067,-9.67999 -0.64685,-0.11218 -1.43433,0.58557 -1.87274,0.7807 -0.93073,2.11926 2.09069,2.88879 0.72906,5.27899 -4.16925,-2.71417 -8.26416,-5.38 -12.65002,-8.23523 0.82244,-0.88946 1.44104,-1.41498 1.88317,-2.06116 2.01087,-2.93884 6.87366,-5.17736 5.67005,-8.75189 -1.49121,-4.42853 -6.68439,-5.56344 -11.13941,-6.51428 -1.77661,-0.37915 -3.64416,-0.69272 -5.43505,-0.55997 -2.74573,0.20355 -5.6717,0.58664 -4.57416,5.00263 -3.52674,-1.59397 -6.73664,-2.94681 -8.29077,-5.59555 -1.72431,-2.93863 2.88751,-4.93302 2.52429,-8.02527 -7.86102,-5.84207 -15.54712,-6.28064 -18.74805,-1.11032 -5.42663,-1.04615 -5.42663,-1.04615 -8.70923,-3.31372 0.99561,-3 3.03729,-5.43283 4.82331,-7.98935 1.76599,-2.5279 0.91088,-4.32535 -1.30103,-5.89655 -3.71149,-2.63653 -11.66833,-1.75708 -15.05786,1.64136 -0.33954,1.90011 2.55853,2.17581 2.0163,4.38943 -2.72931,-0.6419 -5.4668,-1.15841 -8.11963,-1.95654 -1.63825,-0.49289 -3.39722,-1.62839 -2.53809,-3.60004 1.74695,-4.009 -0.86566,-4.56479 -3.62579,-5.16885 -2.10932,-0.46167 -4.27869,-0.70834 -6.33716,-1.32962 -3.52258,-1.06326 -4.90033,0.36807 -4.7337,3.7709 -10.23682,-0.729 -10.23682,-0.729 -6.31678,-9.90499 1.91272,-4.47706 0.25611,-6.72046 -4.66162,-6.21009 -1.31396,0.13639 -2.59753,0.55835 -3.89758,0.83716 -2.7204,0.5835 -5.31391,1.55811 -5.91077,4.60309 -0.59546,3.03784 2.92414,2.65021 4.08014,4.29504 0.12451,0.17713 -0.0399,0.55725 -0.10461,1.1666 -4.19001,-0.98288 -8.31995,-1.95169 -12.96247,-3.04074 2.00184,-5.36215 -1.19671,-6.1832 -4.99756,-5.74341 -3.92413,0.45404 -9.85943,-2.96939 -10.51599,5.12707 -3.30194,-1.4725 -9.2705,2.52286 -9.3363,-5.2044 -0.0102,-1.19626 -1.79596,-1.30347 -2.96014,-1.3056 -2.6651,-0.005 -5.3302,0.0933 -7.99558,0.12814 -2.43744,0.0319 -5.27994,0.40759 -5.98123,2.77206 -1.47488,4.97275 -5.30936,3.89597 -8.64963,4.45429 -1.58108,-5.887 -2.02222,-6.17975 -10.00943,-4.20066 -3.24951,0.80521 -7.44778,1.25864 -6.12515,6.70661 -2.88895,0.0842 -5.06894,2.91199 -8.51474,1.37481 -5.14139,-2.29357 -13.09,3.39109 -13.66202,9.43897 1.69586,1.36768 3.44248,0.36984 5.21302,0.15527 6.38146,-0.7735 12.74426,-1.08258 17.94488,3.70493 8.07577,7.43423 12.78653,16.49725 12.98605,27.65408 0.22141,12.38226 -3.61645,23.50037 -11.37872,34.29419 13.03531,-8.87982 18.67993,-20.64349 18.62015,-35.03479 -0.059,-14.21149 -5.68518,-25.98569 -17.93494,-34.47311 7.42148,-2.69492 13.7608,-0.74338 20.24884,6.08819 11.53714,12.14807 13.96787,26.72977 11.02567,42.67472 -2.27548,12.33184 -7.53568,23.21087 -15.90491,32.64532 10.98379,-4.05487 17.14667,-12.77753 20.84009,-22.87665 8.15057,-22.28656 5.5758,-43.01303 -12.59665,-61.35492 9.36191,-0.59146 16.3049,1.5958 22.08957,7.30896 14.55938,14.37934 18.24341,39.43677 9.33862,61.08979 -5.41083,13.15698 -14.29169,23.42645 -25.19098,32.24292 14.18005,-4.66608 24.3454,-14.0033 30.99353,-27.10742 12.76569,-25.16248 10.87018,-49.27787 -6.24554,-71.82026 1.57678,-1.14908 2.70624,-0.50235 3.81628,-0.32074 21.78784,3.56473 32.25672,23.57486 33.1759,41.44153 1.36792,26.58661 -10.40289,47.14771 -30.84881,63.30506 -1.41962,1.12182 -3.30316,1.86083 -4.44525,4.83294 13.02429,-4.75427 23.06012,-11.92914 30.41052,-22.35266 17.81152,-25.25824 19.79144,-51.67139 3.72888,-79.53534 7.71472,2.64911 14.2909,4.83945 19.6308,9.71842 16.44769,15.02816 20.35071,31.7806 12.06293,53.39767 -7.91773,20.6521 -20.87867,37.25391 -40.9527,49.22504 25.42432,-6.90204 39.91412,-24.1297 50.06104,-46.17682 -0.0466,23.73761 -10.79438,42.06964 -28.18647,57.28045 1.90973,0.7782 2.82514,-0.18566 3.74982,-0.70916 6.76593,-3.83063 12.35736,-9.02991 17.04578,-15.18195 12.69293,-16.65552 18.81597,-35.39471 14.97277,-56.15191 -1.91656,-10.35157 -2.71295,-21.15955 -7.47283,-30.89872 -0.30341,-0.62076 -0.21662,-1.27923 0.84594,-1.93649 7.55249,4.12805 15.35101,8.35016 20.7583,15.56665 12.32013,16.44214 12.638,34.9502 7.99817,53.84564 -5.25275,21.39112 -17.17657,38.71405 -34.1394,52.74683 5.91784,-1.62036 10.57068,-5.28565 15.74682,-9.44385 M 496.7366,585.88116 c -1.33487,-2.02801 -3.22174,-3.64544 -5.44604,-4.20483 -7.96546,-2.00305 -13.04975,-7.53583 -17.97293,-13.56073 -14.86341,-18.18945 -29.93006,-36.20709 -42.55802,-56.09955 -9.04998,-14.25619 -8.47976,-28.64877 0.4057,-42.29962 14.58847,-22.41238 36.48816,-33.21909 62.36237,-37.04947 5.41971,-0.80228 11.04159,-0.54672 16.31406,-2.74582 -9.44806,-3.67788 -19.13541,-5.96881 -28.82093,-8.23913 -27.82336,-6.5221 -54.00757,-4.38947 -76.56634,15.2554 -13.24195,11.53143 -24.04492,24.85568 -29.43259,41.98752 -5.18216,16.47827 1.49265,34.91369 19.54605,40.78509 6.50775,2.11646 12.47937,5.45667 17.96359,9.66992 15.39612,11.82813 26.81504,26.79456 34.91278,44.30951 6.21317,13.43872 9.95304,27.24066 4.13837,41.93665 -0.75336,1.90393 0.12708,3.66772 1.12067,5.19177 3.18509,4.88538 3.48596,10.3125 3.22458,15.86444 -0.86084,18.28589 -1.9144,36.56488 -2.5528,54.85846 -0.44498,12.75086 -0.16592,12.5531 12.47327,14.33466 4.14956,0.58484 5.49387,-0.87867 5.74618,-4.49836 0.82187,-11.79009 2.86447,-23.40454 5.04193,-34.99859 3.37397,-17.96497 7.90537,-35.45416 20.16489,-49.84277 1.50449,-1.76569 2.61856,-3.896 2.98969,-6.25324 0.4794,-3.04468 -0.59888,-4.67847 -3.87281,-3.50977 -3.28979,1.17451 -6.47854,2.51044 -9.03607,5.12305 -6.22766,6.36176 -10.11127,14.00568 -12.52032,22.44647 -3.98743,13.97132 -4.60587,28.51258 -7.0943,42.73835 -0.59473,3.39984 -0.20093,7.08539 -2.79852,10.11621 -1.14203,-19.62769 0.51553,-39.15143 1.90585,-58.25562 -1.95734,-1.60058 -3.82086,0.48657 -5.414,-1.29846 1.44342,-3.26208 4.86725,-4.67206 7.21872,-7.08545 6.03424,-6.19305 6.65051,-10.6712 1.82745,-17.51129 -5.35123,-7.58911 -8.12784,-16.38507 -11.63214,-24.81335 -2.24967,-5.41071 -5.1355,-10.55903 -7.53412,-16.0896 1.96768,-0.34015 2.4899,0.63287 2.99164,1.4262 7.38403,11.67493 15.56039,22.90741 20.97848,35.70673 1.93888,4.58026 3.75669,7.77362 9.30426,4.4519 1.34159,-0.80334 3.21155,-0.73895 4.84516,-1.03723 7.98721,-1.45862 11.68109,-8.75537 7.77624,-16.80945 M 436.47711,326.05539 c -6.27994,1.02545 -12.22983,3.08136 -18.13513,5.42593 -33.94601,13.47736 -65.2034,63.14057 -58.87619,105.12769 3.16537,-35.62433 32.22781,-88.09522 50.46133,-89.61643 -26.03186,27.39228 -35.8154,59.14493 -28.98367,97.32938 5.23947,-5.87766 8.55728,-11.71228 13.87189,-15.36932 5.73761,-3.94818 6.91913,-8.88568 7.04584,-15.63047 0.58499,-31.14874 15.96933,-53.221 43.57388,-66.7944 21.50894,-10.5762 44.44961,-10.48477 67.48535,-7.14935 16.51624,2.39145 32.14935,8.45379 48.21845,12.72033 8.70434,2.31116 17.43395,4.45191 26.56286,3.88413 5.14288,-0.31986 10.06458,-1.29279 14.67542,-4.41739 -3.07019,-3.91479 -5.08326,-7.83435 -4.84198,-12.6225 0.1156,-2.29541 -1.78058,-2.9335 -3.54309,-3.60034 -24.51972,-9.27701 -47.73023,-21.3027 -70.68934,-33.83282 -14.47656,-7.90076 -28.72989,-16.29145 -44.85519,-20.51941 -19.71085,-5.16809 -39.13971,-5.66519 -57.81445,4.15646 -8.56229,4.50314 -15.13416,11.0715 -21.53812,20.00528 26.73358,0.84723 50.86002,7.10114 73.04428,20.13855 -11.72394,-1.4072 -23.27972,-1.41653 -35.66214,0.76468 m 125.76007,465.76773 c -9.02856,5.37036 -19.15014,8.18939 -28.90234,12.138 0.99823,1.10028 2.08063,0.65741 2.979,0.54944 8.07886,-0.97034 16.22455,-1.61914 24.20587,-3.12781 41.44526,-7.83392 80.14429,-22.36713 113.78559,-48.44519 33.06805,-25.63354 57.27911,-57.17499 62.71411,-100.02399 2.07758,-16.37957 3.33252,-15.61889 -13.97894,-16.63324 -4.55237,-0.26672 -5.84577,1.93232 -5.71143,6.00483 0.23773,7.20892 -1.01013,14.27209 -2.80041,21.20422 -8.81922,34.14886 -29.42963,59.82739 -59.51368,76.95398 -59.74597,34.01294 -121.57135,36.35065 -184.51571,8.65082 -2.21991,-0.97699 -4.53971,-1.72699 -6.81296,-2.58277 5.82944,7.513 14.28775,11.35395 21.49509,16.93451 -0.87986,0.47284 -1.53089,0.58802 -2.12754,0.45636 -43.84469,-9.66754 -83.95398,-28.20721 -122.21548,-51.25232 35.837,35.48511 77.10666,60.72492 128.15777,67.9148 -16.57904,7.30182 -33.80438,5.9292 -50.99069,5.20715 29.70658,8.15723 59.48639,6.37519 89.40473,0.38526 -12.36823,9.07318 -26.45292,13.42956 -41.12049,16.37072 32.24933,1.12952 61.06116,-12.05841 90.86499,-21.5495 -3.93243,4.72492 -9.19848,7.47376 -14.91748,10.84473 M 466.32645,184.38571 c 5.55706,12.15668 5.98803,24.92067 4.0885,38.25874 2.34222,-1.4779 3.38211,-3.38913 4.48684,-5.20361 6.81959,-11.20064 9.19873,-23.67644 8.51117,-36.41884 -1.24621,-23.09472 -11.94778,-42.31187 -26.8359,-59.38144 -4.07367,-4.67051 -6.27057,-4.46238 -10.04895,0.28434 -20.07428,25.21887 -28.10761,53.65567 -22.0152,85.54473 2.10318,11.00867 6.37738,21.25213 14.13815,29.97043 7.05402,-4.00686 14.04447,-7.45323 21.83124,-8.91234 2.16315,-0.40535 2.15259,-2.19348 2.21048,-3.91342 0.22311,-6.62623 -2.4462,-12.32299 -5.73453,-17.79959 -3.68829,-6.1427 -7.31579,-12.30739 -10.24475,-18.86702 -4.86432,-10.89415 -5.97192,-22.22947 -4.4978,-35.14158 9.81512,9.74893 18.17175,19.23915 24.11075,31.5796 m 122.18032,475.71542 c 2.83149,-4.24548 5.66291,-8.49096 8.49439,-12.73645 -19.15088,15.909 -31.50055,36.03022 -36.76239,60.54657 -0.8797,-0.53326 -1.26703,-0.63342 -1.40948,-0.87689 -0.75446,-1.2893 -1.46808,-2.60382 -2.15851,-3.92907 -9.97211,-19.14075 -22.63617,-36.04731 -40.29779,-48.85828 -5.70923,-4.14136 -6.56208,-3.92639 -8.6341,2.95666 -4.84448,16.09266 -8.41318,32.48059 -11.23874,49.03547 -0.84872,4.97259 0.13397,6.06903 5.39591,6.47064 21.24469,1.62134 42.51788,1.63147 63.79913,1.12109 6.92004,-0.16595 6.95831,-0.2619 7.89264,-7.29169 2.14343,-16.12646 6.44946,-31.57098 14.91894,-46.43805 m -203.6683,-108.4815 c -4.68246,-6.27264 -9.4552,-12.48017 -14.0304,-18.83008 -13.56982,-18.83362 -23.68719,-39.21362 -28.46533,-62.14127 -1.893,-9.08361 -2.63598,-18.30566 -4.22168,-27.42623 -1.07754,5.43237 -1.94247,10.80539 -1.85666,16.3395 0.0881,5.68097 0.64515,11.29993 1.63013,16.85212 4.14566,23.3674 15.45392,43.38168 29.45993,62.08987 9.48181,12.66498 19.18497,25.16699 26.457,39.33063 5.61743,10.94085 9.34973,22.1195 5.32746,34.48858 -0.72672,2.23468 -0.0363,3.88025 1.32345,5.48169 2.7204,3.20411 3.60459,7.05341 3.82846,11.10321 0.892,16.13404 1.04013,32.28363 1.0004,48.43793 -0.0294,11.95715 0.0604,11.78986 11.26935,15.58246 4.37787,1.48126 5.26898,-0.1225 5.35067,-3.99677 0.17194,-8.15588 0.24314,-16.33404 0.92667,-24.45495 1.63342,-19.40607 2.84976,-38.99048 15.79407,-55.20044 2.23062,-2.7934 2.60916,-6.32196 0.0641,-8.62897 -2.23356,-2.02453 -5.04072,0.25556 -7.17682,1.66925 -6.48313,4.29059 -8.78019,11.04517 -10.17917,18.22162 -3.06269,15.71008 -3.98792,31.65607 -5.22361,47.56921 -0.13662,1.75898 0.61603,3.94007 -2.36642,5.69495 -1.26559,-18.31012 -2.3436,-35.97851 -1.50122,-53.45795 -1.25967,-1.82098 -3.04254,0.53431 -4.78854,-1.72229 4.61111,-3.19683 7.99395,-7.55713 10.0888,-12.84417 0.98288,-2.48059 1.43085,-4.67578 -0.83407,-6.82129 -4.15921,-3.93982 -7.00101,-8.8758 -9.81891,-13.78717 -6.55484,-11.42456 -13.49106,-22.59326 -22.05762,-33.54944 m 355.31937,73.26782 c 8.15332,1.60553 15.93029,4.612 24.01532,6.79291 -3.70819,-6.59064 -8.81153,-11.43598 -14.92615,-15.30744 -15.44952,-9.78173 -32.48505,-11.07202 -49.60968,-7.4223 -36.20233,7.71576 -63.40454,28.13001 -81.20429,60.75183 -1.54791,2.83698 -3.41613,5.61017 -3.72735,9.19684 2.02936,-0.62231 2.77228,-2.24621 3.72339,-3.51233 15.7774,-21.00244 36.24029,-35.45038 60.94,-44.20038 19.49982,-6.90783 39.42084,-9.15405 60.78876,-6.29913 M 527.33734,273.90597 c 3.68085,-0.35348 7.31976,-1.11718 7.29859,-5.76052 -0.0283,-6.19278 -1.45551,-12.13117 -7.22248,-15.5698 -5.74035,-3.42279 -11.84088,-2.88315 -18.40692,-0.77365 2.92047,2.57208 6.37036,1.04147 9.37116,2.9931 -4.79645,2.95368 -4.87543,6.89542 -3.22083,11.06745 2.00977,5.06753 5.54602,8.22134 12.18048,8.04342 m -61.65869,210.96555 c -2.85074,-4.48105 -6.19504,-8.34003 -12.95911,-10.10373 10.65171,11.66626 14.595,24.19327 11.71778,39.07651 6.57537,-7.94177 7.01297,-18.25076 1.24133,-28.97278 z"
   id="path1" />&#10;<path
   fill="#000000"
   opacity="1"
   stroke="none"
   d="m 206.30125,577.24853 c -7.73837,20.91547 -9.02168,42.11707 -7.27455,63.77167 0.80692,10.00128 2.8149,19.72193 4.76447,29.49292 0.31291,1.56836 1.09106,3.16077 -0.47478,4.93665 -2.3668,-1.48023 -3.46103,-3.93561 -4.812,-6.10877 -10.93776,-17.59436 -17.22988,-37.08844 -22.80467,-56.81695 -7.17172,-25.37982 -10.97183,-51.3158 -12.12103,-77.66785 -3.22124,-73.86441 14.89555,-142.04025 54.42223,-204.50125 19.12985,-30.22949 42.38745,-56.80536 70.67477,-78.84067 3.40347,-2.65121 6.80978,-5.51785 11.65774,-4.64676 4.6373,0.83326 8.07676,3.23688 9.4148,7.87296 1.64893,5.71316 0.56955,10.96356 -3.79678,15.1539 -5.40418,5.18631 -11.1778,9.9957 -16.46866,15.29083 -46.15926,46.19647 -77.80173,100.50012 -92.38858,164.51498 -5.81925,25.53791 -7.43125,51.31739 -6.69164,77.33436 0.23093,8.12341 1.27782,16.22741 2.0793,24.32763 0.15535,1.57007 0.39926,3.30127 2.22504,4.80811 16.37866,-26.06799 37.16122,-46.96704 67.0314,-57.37793 -24.05499,22.14709 -44.01553,47.06183 -55.43706,78.45617 z"
   id="path2" />&#10;<path
   fill="#000000"
   opacity="1"
   stroke="none"
   d="m 572.7594,362.70575 c -9.85742,-0.36722 -18.60022,-3.42029 -27.20307,-7.15845 -15.83654,-6.88147 -30.47955,-16.52771 -47.54132,-20.58517 -0.17806,-0.0424 -0.25711,-0.50101 -0.71765,-1.47281 7.09357,-0.0189 13.64435,1.50366 20.20575,2.65076 14.58405,2.54956 27.66077,9.40866 41.26544,14.73971 8.31159,3.25693 16.47004,6.92969 26.6297,7.66483 -4.12249,4.35403 -8.4588,3.45294 -12.63885,4.16113 z"
   id="path3" />&#10;<text
   xml:space="preserve"
   id="text3"
   style="white-space:pre;shape-inside:url(#rect3);display:inline;fill:#000000;stroke:none" /><text
   xml:space="preserve"
   id="text4"
   style="font-style:normal;font-variant:normal;font-weight:normal;font-stretch:normal;font-family:'Helvetica Neue';-inkscape-font-specification:'Helvetica Neue';white-space:pre;shape-inside:url(#rect4);display:inline;fill:#000000;stroke:none" /><text
   xml:space="preserve"
   id="text5"
   style="font-style:normal;font-variant:normal;font-weight:normal;font-stretch:normal;font-size:533.333px;font-family:'Helvetica Neue';-inkscape-font-specification:'Helvetica Neue';white-space:pre;shape-inside:url(#rect6);display:inline;fill:#000000;stroke:none"
   transform="translate(-259.66101,3.016949)"><tspan
     x="1136.8145"
     y="693.82399"
     id="tspan4"><tspan
       style="font-weight:500;-inkscape-font-specification:'Helvetica Neue Medium';letter-spacing:24px"
       id="tspan1">R</tspan><tspan
       dx="15"
       style="font-weight:500;-inkscape-font-specification:'Helvetica Neue Medium';letter-spacing:9px"
       id="tspan2">A</tspan><tspan
       dx="9.0000305"
       style="font-weight:500;-inkscape-font-specification:'Helvetica Neue Medium'"
       id="tspan3">DIFOX</tspan></tspan></text><text
   xml:space="preserve"
   style="font-style:normal;font-variant:normal;font-weight:500;font-stretch:normal;font-size:102.667px;font-family:'Helvetica Neue';-inkscape-font-specification:'Helvetica Neue Medium';letter-spacing:4px;fill:#000000;stroke:none"
   x="916.20337"
   y="816.4068"
   id="text14"><tspan
     sodipodi:role="line"
     id="tspan14"
     x="916.20337"
     y="816.4068"
     style="font-style:normal;font-variant:normal;font-weight:bold;font-stretch:normal;font-size:102.667px;font-family:'Helvetica Neue';-inkscape-font-specification:'Helvetica Neue Bold';letter-spacing:4px">RADiological Image File Ontology eXtension</tspan></text></svg>
